<svg width="17" height="18" viewBox="0 0 17 18" fill="none" xmlns="http://www.w3.org/2000/svg">
<path d="M13.6339 6.05357C13.6339 4.71328 13.1015 3.42789 12.1538 2.48016C11.206 1.53243 9.92065 1 8.58036 1C7.24007 1 5.95467 1.53243 5.00694 2.48016C4.05922 3.42789 3.52679 4.71328 3.52679 6.05357C3.52679 11.9494 1 13.6339 1 13.6339H16.1607C16.1607 13.6339 13.6339 11.9494 13.6339 6.05357Z" stroke="#8A93A6" stroke-width="1.3" stroke-linecap="round" stroke-linejoin="round"/>
<path d="M10.0373 16.1602C9.8892 16.4154 9.67665 16.6273 9.42093 16.7746C9.1652 16.9219 8.87527 16.9994 8.58016 16.9994C8.28505 16.9994 7.99512 16.9219 7.73939 16.7746C7.48367 16.6273 7.27113 16.4154 7.12305 16.1602" fill="#01A39D"/>
<path d="M10.0373 16.1602C9.8892 16.4154 9.67665 16.6273 9.42093 16.7746C9.1652 16.9219 8.87527 16.9994 8.58016 16.9994C8.28505 16.9994 7.99512 16.9219 7.73939 16.7746C7.48367 16.6273 7.27113 16.4154 7.12305 16.1602" stroke="#8A93A6" stroke-width="1.3" stroke-linecap="round" stroke-linejoin="round"/>
</svg>
