<svg xmlns="http://www.w3.org/2000/svg" width="416.686" height="416.681" viewBox="0 0 416.686 416.681">
  <g id="logo-symbol_1_" transform="translate(-107.426)">
    <path id="Path_8621" data-name="Path 8621" d="M219.16,97.8a9.766,9.766,0,0,0,13.689,1.833,135.452,135.452,0,0,1,82.917-28.017c75.394,0,136.729,61.334,136.729,136.725S391.161,345.064,315.766,345.064,179.043,283.732,179.043,208.34a135.451,135.451,0,0,1,28.017-82.919,9.766,9.766,0,0,0-15.521-11.856,154.826,154.826,0,0,0-32.027,94.775c0,86.159,70.1,156.255,156.25,156.255S472.021,294.5,472.021,208.34,401.921,52.084,315.762,52.084A154.813,154.813,0,0,0,220.991,84.11,9.768,9.768,0,0,0,219.16,97.8ZM315.766,0c-114.875,0-208.34,93.46-208.34,208.34s93.461,208.341,208.34,208.341S524.112,323.223,524.112,208.34,430.646,0,315.766,0Zm0,397.147c-104.1,0-188.808-84.7-188.808-188.812s84.7-188.809,188.808-188.809,188.812,84.7,188.812,188.809S419.875,397.147,315.766,397.147Z" fill="#54ae61"/>
  </g>
</svg>
